<?xml version="1.0" encoding="UTF-8"?><svg id="_レイヤー_1" xmlns="http://www.w3.org/2000/svg" viewBox="0 0 177.26 62.16"><defs><style>.cls-1{fill:gray;}.cls-1,.cls-2{stroke-width:0px;}.cls-2{fill:#fff;}</style></defs><circle class="cls-1" cx="150.82" cy="19.31" r="2.01"/><path class="cls-2" d="m70.69,14.12V5.72h2.38l2.55,7.2h.18v-7.2h1.36v8.4h-2.33l-2.61-7.21h-.17v7.21h-1.36Z"/><path class="cls-2" d="m78.58,5.72h3.19c.86,0,1.5.17,1.92.52.42.35.64.9.64,1.66,0,.5-.08.89-.24,1.18s-.41.52-.75.71c.8.31,1.2.96,1.2,1.95,0,1.59-.89,2.38-2.67,2.38h-3.29V5.72Zm3.11,1.18h-1.75v2.4h1.8c.8,0,1.2-.41,1.2-1.24,0-.78-.42-1.17-1.25-1.17Zm.07,3.56h-1.83v2.49h1.85c.45,0,.79-.09,1.01-.28s.34-.51.34-.97-.13-.78-.39-.96c-.26-.18-.59-.28-.98-.28Z"/><path class="cls-2" d="m88.26,14.12h-2.91V5.72h2.91c1.29,0,2.17.33,2.65.98.47.65.71,1.68.71,3.08,0,.71-.05,1.31-.14,1.81-.09.5-.26.94-.5,1.34-.47.79-1.37,1.19-2.72,1.19Zm1.95-4.34c0-1.01-.13-1.74-.38-2.19-.25-.45-.78-.67-1.57-.67h-1.54v6.01h1.54c.81,0,1.35-.3,1.62-.9.13-.3.22-.62.26-.97.04-.34.07-.77.07-1.28Z"/><path class="cls-2" d="m95.54,14.25c-1.23,0-2.06-.34-2.5-1.02s-.66-1.79-.66-3.35.22-2.66.66-3.32c.44-.66,1.27-.99,2.49-.99.73,0,1.53.1,2.4.31l-.05,1.1c-.74-.13-1.47-.2-2.21-.2s-1.23.22-1.5.66c-.26.44-.39,1.26-.39,2.46s.13,2.03.38,2.46c.25.44.75.66,1.48.66s1.48-.06,2.23-.18l.04,1.13c-.84.18-1.64.27-2.39.27Z"/><path class="cls-2" d="m98.68,10.52v-1.21h3.67v1.21h-3.67Z"/><path class="cls-2" d="m106.48,14.11h-2.91V5.72h2.91c1.29,0,2.17.33,2.65.98.47.65.71,1.68.71,3.08,0,.71-.05,1.31-.14,1.81-.09.5-.26.94-.5,1.34-.47.79-1.37,1.19-2.72,1.19Zm1.95-4.34c0-1.01-.13-1.74-.38-2.19-.25-.45-.78-.67-1.57-.67h-1.54v6.01h1.54c.81,0,1.35-.3,1.62-.9.13-.3.22-.62.26-.97.04-.34.07-.77.07-1.28Z"/><path class="cls-2" d="m113.85,14.11h-2.91V5.72h2.91c1.29,0,2.17.33,2.65.98.47.65.71,1.68.71,3.08,0,.71-.05,1.31-.14,1.81-.09.5-.26.94-.5,1.34-.47.79-1.37,1.19-2.72,1.19Zm1.95-4.34c0-1.01-.13-1.74-.38-2.19-.25-.45-.78-.67-1.57-.67h-1.54v6.01h1.54c.81,0,1.35-.3,1.62-.9.13-.3.22-.62.26-.97.04-.34.07-.77.07-1.28Z"/><path class="cls-2" d="m118.31,5.72h3.19c.86,0,1.5.17,1.92.52.42.35.64.9.64,1.66,0,.5-.08.89-.24,1.18s-.41.52-.75.71c.8.31,1.2.96,1.2,1.95,0,1.59-.89,2.38-2.67,2.38h-3.29V5.72Zm3.11,1.18h-1.75v2.4h1.8c.8,0,1.2-.41,1.2-1.24,0-.78-.42-1.17-1.25-1.17Zm.07,3.56h-1.83v2.49h1.85c.45,0,.79-.09,1.01-.28s.34-.51.34-.97-.13-.78-.39-.96c-.26-.18-.59-.28-.98-.28Z"/><path class="cls-2" d="m124.59,14.99v-1.2c.43,0,.73-.07.89-.2.16-.13.24-.42.24-.87v-7h1.35v7.1c.01.88-.17,1.46-.54,1.74s-1.01.43-1.94.43Z"/><path class="cls-2" d="m70.7,34.96v-17.16h2.78v17.16h-2.78Z"/><path class="cls-2" d="m78.84,34.96h-2.73v-12.52h2.71v.78c1.19-.7,2.27-1.05,3.26-1.05,1.45,0,2.51.41,3.18,1.23,1.52-.82,3.03-1.23,4.53-1.23s2.56.46,3.18,1.39c.62.93.93,2.49.93,4.7v6.71h-2.71v-6.64c0-1.35-.14-2.31-.41-2.88-.28-.57-.85-.85-1.72-.85-.75,0-1.56.17-2.43.5l-.43.18c.13.33.2,1.4.2,3.21v6.49h-2.71v-6.44c0-1.49-.13-2.51-.4-3.08-.27-.57-.85-.85-1.75-.85-.83,0-1.61.17-2.33.5l-.38.15v9.72Z"/><path class="cls-2" d="m95.59,40.35v-17.91h2.71v.78c1.15-.7,2.23-1.05,3.23-1.05,1.65,0,2.86.5,3.63,1.51.77,1.01,1.15,2.71,1.15,5.08s-.44,4.05-1.32,5.02c-.88.97-2.31,1.45-4.3,1.45-.68,0-1.48-.08-2.38-.23v5.33h-2.73Zm5.46-15.75c-.78,0-1.57.18-2.35.53l-.38.18v7.39c.67.13,1.4.2,2.2.2,1.13,0,1.92-.33,2.35-.98.43-.65.65-1.76.65-3.33,0-2.66-.83-3.98-2.48-3.98Z"/><path class="cls-2" d="m115.63,22.44h2.71v12.52h-2.71v-.78c-1.22.7-2.35,1.05-3.38,1.05-1.72,0-2.87-.46-3.46-1.39-.58-.93-.88-2.55-.88-4.87v-6.54h2.73v6.56c0,1.5.12,2.51.38,3.03.25.52.83.78,1.75.78s1.73-.17,2.48-.5l.38-.15v-9.72Z"/><path class="cls-2" d="m127.88,24.77h-3.46v5.51c0,1.02.08,1.69.23,2.03s.53.5,1.15.5l2.05-.08.12,2.18c-1.12.22-1.97.33-2.55.33-1.42,0-2.39-.33-2.92-.98s-.79-1.88-.79-3.68v-5.81h-1.6v-2.33h1.6v-3.63h2.71v3.63h3.46v2.33Z"/><path class="cls-2" d="m138.88,26.3v5.71c.02.37.11.64.29.81s.45.29.81.34l-.08,2.08c-1.44,0-2.55-.31-3.33-.93-1.34.62-2.68.93-4.03.93-2.49,0-3.73-1.33-3.73-3.98,0-1.27.34-2.19,1.01-2.75.68-.57,1.71-.91,3.12-1.03l3.23-.28v-.9c0-.67-.15-1.14-.44-1.4-.29-.27-.72-.4-1.29-.4-1.07,0-2.41.07-4.01.2l-.8.05-.1-1.93c1.82-.43,3.49-.65,5.02-.65s2.63.33,3.31.99c.68.66,1.01,1.71,1.01,3.14Zm-5.61,3.11c-1.15.1-1.73.73-1.73,1.88s.51,1.73,1.53,1.73c.83,0,1.72-.13,2.66-.4l.45-.15v-3.33l-2.91.28Z"/><path class="cls-2" d="m147.73,24.77h-3.46v5.51c0,1.02.08,1.69.23,2.03s.53.5,1.15.5l2.05-.08.12,2.18c-1.12.22-1.97.33-2.55.33-1.42,0-2.39-.33-2.92-.98s-.79-1.88-.79-3.68v-5.81h-1.6v-2.33h1.6v-3.63h2.71v3.63h3.46v2.33Z"/><path class="cls-2" d="m149.45,34.96v-12.52h2.73v12.52h-2.73Z"/><path class="cls-2" d="m155.18,23.79c.86-1.09,2.29-1.63,4.3-1.63s3.44.54,4.3,1.63c.86,1.08,1.29,2.71,1.29,4.88s-.42,3.81-1.25,4.91c-.83,1.1-2.28,1.65-4.33,1.65s-3.5-.55-4.33-1.65c-.83-1.1-1.25-2.74-1.25-4.91s.43-3.8,1.29-4.88Zm2.04,8.14c.38.67,1.13,1,2.25,1s1.87-.33,2.25-1c.38-.67.58-1.76.58-3.28s-.2-2.6-.61-3.23-1.15-.95-2.22-.95-1.81.32-2.22.95-.61,1.71-.61,3.23.19,2.61.58,3.28Z"/><path class="cls-2" d="m169.49,34.96h-2.73v-12.52h2.71v.78c1.22-.7,2.37-1.05,3.46-1.05,1.67,0,2.81.47,3.42,1.42s.91,2.5.91,4.67v6.71h-2.71v-6.64c0-1.35-.15-2.31-.44-2.88-.29-.57-.89-.85-1.79-.85-.85,0-1.67.17-2.46.5l-.38.15v9.72Z"/><path class="cls-2" d="m76.52,41.09c-2.12,0-3.18.74-3.18,2.23,0,.77.25,1.32.75,1.64.5.33,1.61.73,3.32,1.2,1.71.48,2.92,1.04,3.62,1.7.7.66,1.05,1.7,1.05,3.12,0,1.8-.51,3.15-1.54,4.04-1.03.89-2.42,1.34-4.2,1.34-1.42,0-2.99-.17-4.71-.5l-.9-.17.28-2.23c2.25.3,3.97.45,5.16.45,2.07,0,3.11-.92,3.11-2.76,0-.72-.23-1.25-.7-1.59-.47-.34-1.52-.72-3.16-1.13-1.64-.41-2.86-.97-3.66-1.69-.8-.72-1.2-1.85-1.2-3.41s.5-2.73,1.52-3.52c1.01-.79,2.41-1.19,4.2-1.19,1.29,0,2.81.15,4.56.45l.88.15-.23,2.25c-2.34-.27-3.99-.4-4.96-.4Z"/><path class="cls-2" d="m93.18,53.84l.7-.08.05,2.03c-1.9.38-3.59.58-5.06.58-1.85,0-3.18-.51-4-1.53-.81-1.02-1.21-2.65-1.21-4.88,0-4.44,1.81-6.66,5.44-6.66s5.26,1.91,5.26,5.74l-.17,1.95h-7.76c.02,1.04.24,1.79.68,2.28.43.48,1.24.73,2.43.73s2.41-.05,3.66-.15Zm-1.5-4.96c0-1.24-.2-2.1-.59-2.59-.39-.49-1.06-.74-1.99-.74s-1.62.26-2.04.78-.65,1.37-.66,2.55h5.29Z"/><path class="cls-2" d="m96.48,56.37v-12.8h2.71v1.5c1.42-.92,2.84-1.51,4.26-1.78v2.73c-1.44.28-2.66.65-3.68,1.1l-.55.23v9.02h-2.73Z"/><path class="cls-2" d="m104.85,43.57h2.86l2.4,10.54h.8l2.5-10.54h2.78l-3.26,12.8h-4.86l-3.23-12.8Z"/><path class="cls-2" d="m126.24,53.84l.7-.08.05,2.03c-1.9.38-3.59.58-5.06.58-1.85,0-3.18-.51-4-1.53-.81-1.02-1.21-2.65-1.21-4.88,0-4.44,1.81-6.66,5.44-6.66s5.26,1.91,5.26,5.74l-.17,1.95h-7.76c.02,1.04.24,1.79.68,2.28.43.48,1.24.73,2.43.73s2.41-.05,3.66-.15Zm-1.5-4.96c0-1.24-.2-2.1-.59-2.59-.39-.49-1.06-.74-1.99-.74s-1.62.26-2.04.78-.65,1.37-.66,2.55h5.29Z"/><path class="cls-2" d="m129.54,56.36v-12.8h2.71v1.5c1.42-.92,2.84-1.51,4.26-1.78v2.73c-1.44.28-2.66.65-3.68,1.1l-.55.23v9.02h-2.73Z"/><path class="cls-2" d="m59.99,26.98c-3.03-1.98-6.82-2.3-10.14-.85l-13.78,6.01,1.65,3.65,13.73-5.99c2.11-.92,4.43-.72,6.35.54,1.93,1.26,3.03,3.31,3.03,5.61s-1.11,4.35-3.03,5.61c-1.93,1.26-4.24,1.46-6.35.53L14.98,26.12c-3.32-1.45-7.11-1.13-10.14.85-3.03,1.98-4.84,5.33-4.84,8.96s1.81,6.97,4.84,8.96c.77.5,1.59.88,2.44,1.17l1.27-3.78c-.54-.16-1.07-.43-1.52-.73-1.93-1.26-3.03-3.31-3.03-5.61s1.1-4.35,3.03-5.61c1.12-.74,2.38-1.11,3.65-1.11.91,0,1.82.19,2.7.57l36.47,15.95c1.38.6,2.83.9,4.29.9,2.05,0,4.08-.59,5.86-1.75,3.03-1.98,4.84-5.33,4.84-8.96s-1.81-6.97-4.84-8.96Z"/><path class="cls-2" d="m39.49,27.04c2.16-.98,3.85-2.76,4.69-4.98s.76-4.64-.22-6.8l-4.48-9.92c-1-2.21-2.8-3.9-5.07-4.75-2.27-.85-4.73-.77-6.94.22-2.21,1-3.9,2.8-4.75,5.07-.85,2.27-.78,4.73.22,6.94l9.47,20.93,5.48,2.41-11.3-24.99c-.56-1.23-.6-2.61-.12-3.88.48-1.27,1.42-2.27,2.66-2.83,1.24-.56,2.61-.6,3.88-.12,1.27.48,2.27,1.42,2.83,2.66l4.48,9.92c.54,1.19.58,2.52.12,3.74-.46,1.22-1.41,2.21-2.61,2.75l1.66,3.64Z"/><circle class="cls-1" cx="38.54" cy="25.27" r="2.01"/><polygon class="cls-2" points="18.52 39.83 14.05 41.78 15.67 45.44 20.16 43.48 18.52 39.83"/><polygon class="cls-2" points="31.19 38.67 26.2 36.48 23.12 37.82 24.77 41.47 31.19 38.67"/><circle class="cls-1" cx="8.12" cy="44.23" r="2.01"/><circle class="cls-1" cx="14.73" cy="43.67" r="2.01"/><path class="cls-2" d="m18.57,37.48l3.64-1.65,8.75,19.34c.56,1.23,1.56,2.18,2.83,2.66s2.65.43,3.88-.12c2.55-1.15,3.68-4.17,2.53-6.71l-4.72-10.44,5.48,2.4,2.89,6.39c1,2.21,1.08,4.67.22,6.94s-2.54,4.07-4.75,5.07c-1.19.54-2.46.81-3.74.81-1.08,0-2.16-.2-3.21-.59-2.27-.86-4.07-2.54-5.06-4.75l-8.75-19.34"/><circle class="cls-1" cx="20.33" cy="36.51" r="2.01"/></svg>