<?xml version="1.0" encoding="UTF-8"?><svg id="_レイヤー_1" xmlns="http://www.w3.org/2000/svg" viewBox="0 0 64.84 62.16"><defs><style>.cls-1{fill:gray;}.cls-1,.cls-2{stroke-width:0px;}.cls-2{fill:#fff;}</style></defs><path class="cls-2" d="m59.99,26.98c-3.03-1.98-6.82-2.3-10.14-.85l-13.78,6.01,1.65,3.65,13.73-5.99c2.11-.92,4.43-.72,6.35.54,1.93,1.26,3.03,3.31,3.03,5.61s-1.11,4.35-3.03,5.61c-1.93,1.26-4.24,1.46-6.35.53L14.98,26.12c-3.32-1.45-7.11-1.13-10.14.85-3.03,1.98-4.84,5.33-4.84,8.96s1.81,6.97,4.84,8.96c.77.5,1.59.88,2.44,1.17l1.27-3.78c-.54-.16-1.07-.43-1.52-.73-1.93-1.26-3.03-3.31-3.03-5.61s1.1-4.35,3.03-5.61c1.12-.74,2.38-1.11,3.65-1.11.91,0,1.82.19,2.7.57l36.47,15.95c1.38.6,2.83.9,4.29.9,2.05,0,4.08-.59,5.86-1.75,3.03-1.98,4.84-5.33,4.84-8.96s-1.81-6.97-4.84-8.96Z"/><path class="cls-2" d="m39.49,27.04c2.16-.98,3.85-2.76,4.69-4.98s.76-4.64-.22-6.8l-4.48-9.92c-1-2.21-2.8-3.9-5.07-4.75-2.27-.85-4.73-.77-6.94.22-2.21,1-3.9,2.8-4.75,5.07-.85,2.27-.78,4.73.22,6.94l9.47,20.93,5.48,2.41-11.3-24.99c-.56-1.23-.6-2.61-.12-3.88.48-1.27,1.42-2.27,2.66-2.83,1.24-.56,2.61-.6,3.88-.12,1.27.48,2.27,1.42,2.83,2.66l4.48,9.92c.54,1.19.58,2.52.12,3.74-.46,1.22-1.41,2.21-2.61,2.75l1.66,3.64Z"/><circle class="cls-1" cx="38.54" cy="25.27" r="2.01"/><polygon class="cls-2" points="18.52 39.83 14.05 41.78 15.67 45.44 20.16 43.48 18.52 39.83"/><polygon class="cls-2" points="31.19 38.67 26.2 36.48 23.12 37.82 24.77 41.47 31.19 38.67"/><circle class="cls-1" cx="8.12" cy="44.23" r="2.01"/><circle class="cls-1" cx="14.73" cy="43.67" r="2.01"/><path class="cls-2" d="m18.57,37.48l3.64-1.65,8.75,19.34c.56,1.23,1.56,2.18,2.83,2.66s2.65.43,3.88-.12c2.55-1.15,3.68-4.17,2.53-6.71l-4.72-10.44,5.48,2.4,2.89,6.39c1,2.21,1.08,4.67.22,6.94s-2.54,4.07-4.75,5.07c-1.19.54-2.46.81-3.74.81-1.08,0-2.16-.2-3.21-.59-2.27-.86-4.07-2.54-5.06-4.75l-8.75-19.34"/><circle class="cls-1" cx="20.33" cy="36.51" r="2.01"/></svg>